<svg width="140" height="43" viewBox="0 0 140 43" fill="none" xmlns="http://www.w3.org/2000/svg">
<path d="M4.35 30C3.69 30 3.18 29.83 2.82 29.49C2.48 29.13 2.31 28.62 2.31 27.96V10.89C2.31 10.23 2.48 9.73 2.82 9.39C3.18 9.03 3.69 8.85 4.35 8.85H15.06C15.56 8.85 15.94 8.98 16.2 9.24C16.48 9.5 16.62 9.87 16.62 10.35C16.62 10.85 16.48 11.24 16.2 11.52C15.94 11.78 15.56 11.91 15.06 11.91H6V17.73H14.4C14.92 17.73 15.31 17.86 15.57 18.12C15.83 18.38 15.96 18.76 15.96 19.26C15.96 19.76 15.83 20.14 15.57 20.4C15.31 20.66 14.92 20.79 14.4 20.79H6V26.94H15.06C15.56 26.94 15.94 27.07 16.2 27.33C16.48 27.59 16.62 27.97 16.62 28.47C16.62 28.97 16.48 29.35 16.2 29.61C15.94 29.87 15.56 30 15.06 30H4.35ZM21.7704 30.24C21.1704 30.24 20.7104 30.08 20.3904 29.76C20.0704 29.42 19.9104 28.94 19.9104 28.32V16.98C19.9104 16.36 20.0704 15.89 20.3904 15.57C20.7104 15.25 21.1604 15.09 21.7404 15.09C22.3204 15.09 22.7704 15.25 23.0904 15.57C23.4104 15.89 23.5704 16.36 23.5704 16.98V19.17L23.2404 18.27C23.6404 17.27 24.2604 16.48 25.1004 15.9C25.9404 15.32 26.9404 15.03 28.1004 15.03C29.2804 15.03 30.2504 15.31 31.0104 15.87C31.7704 16.43 32.3004 17.29 32.6004 18.45H32.1804C32.5804 17.39 33.2404 16.56 34.1604 15.96C35.0804 15.34 36.1404 15.03 37.3404 15.03C38.4604 15.03 39.3804 15.25 40.1004 15.69C40.8404 16.13 41.3904 16.8 41.7504 17.7C42.1104 18.58 42.2904 19.7 42.2904 21.06V28.32C42.2904 28.94 42.1204 29.42 41.7804 29.76C41.4604 30.08 41.0004 30.24 40.4004 30.24C39.8004 30.24 39.3404 30.08 39.0204 29.76C38.7004 29.42 38.5404 28.94 38.5404 28.32V21.21C38.5404 20.09 38.3504 19.27 37.9704 18.75C37.6104 18.23 36.9904 17.97 36.1104 17.97C35.1304 17.97 34.3604 18.32 33.8004 19.02C33.2404 19.7 32.9604 20.65 32.9604 21.87V28.32C32.9604 28.94 32.8004 29.42 32.4804 29.76C32.1604 30.08 31.7004 30.24 31.1004 30.24C30.5004 30.24 30.0304 30.08 29.6904 29.76C29.3704 29.42 29.2104 28.94 29.2104 28.32V21.21C29.2104 20.09 29.0204 19.27 28.6404 18.75C28.2804 18.23 27.6704 17.97 26.8104 17.97C25.8304 17.97 25.0604 18.32 24.5004 19.02C23.9404 19.7 23.6604 20.65 23.6604 21.87V28.32C23.6604 29.6 23.0304 30.24 21.7704 30.24ZM50.989 30.3C49.929 30.3 48.979 30.1 48.139 29.7C47.319 29.28 46.669 28.72 46.189 28.02C45.729 27.32 45.499 26.53 45.499 25.65C45.499 24.57 45.779 23.72 46.339 23.1C46.899 22.46 47.809 22 49.069 21.72C50.329 21.44 52.019 21.3 54.139 21.3H55.639V23.46H54.169C52.929 23.46 51.939 23.52 51.199 23.64C50.459 23.76 49.929 23.97 49.609 24.27C49.309 24.55 49.159 24.95 49.159 25.47C49.159 26.13 49.389 26.67 49.849 27.09C50.309 27.51 50.949 27.72 51.769 27.72C52.429 27.72 53.009 27.57 53.509 27.27C54.029 26.95 54.439 26.52 54.739 25.98C55.039 25.44 55.189 24.82 55.189 24.12V20.67C55.189 19.67 54.969 18.95 54.529 18.51C54.089 18.07 53.349 17.85 52.309 17.85C51.729 17.85 51.099 17.92 50.419 18.06C49.759 18.2 49.059 18.44 48.319 18.78C47.939 18.96 47.599 19.01 47.299 18.93C47.019 18.85 46.799 18.69 46.639 18.45C46.479 18.19 46.399 17.91 46.399 17.61C46.399 17.31 46.479 17.02 46.639 16.74C46.799 16.44 47.069 16.22 47.449 16.08C48.369 15.7 49.249 15.43 50.089 15.27C50.949 15.11 51.729 15.03 52.429 15.03C53.869 15.03 55.049 15.25 55.969 15.69C56.909 16.13 57.609 16.8 58.069 17.7C58.529 18.58 58.759 19.72 58.759 21.12V28.32C58.759 28.94 58.609 29.42 58.309 29.76C58.009 30.08 57.579 30.24 57.019 30.24C56.459 30.24 56.019 30.08 55.699 29.76C55.399 29.42 55.249 28.94 55.249 28.32V26.88H55.489C55.349 27.58 55.069 28.19 54.649 28.71C54.249 29.21 53.739 29.6 53.119 29.88C52.499 30.16 51.789 30.3 50.989 30.3ZM63.9452 23.46C63.5052 23.46 63.1352 23.32 62.8352 23.04C62.5552 22.74 62.4152 22.38 62.4152 21.96C62.4152 21.52 62.5552 21.16 62.8352 20.88C63.1352 20.6 63.5052 20.46 63.9452 20.46H70.3352C70.7552 20.46 71.1052 20.6 71.3852 20.88C71.6852 21.16 71.8352 21.52 71.8352 21.96C71.8352 22.38 71.6852 22.74 71.3852 23.04C71.1052 23.32 70.7552 23.46 70.3352 23.46H63.9452ZM74.1534 30.21C73.5934 30.23 73.1534 30.08 72.8334 29.76C72.5134 29.44 72.3534 29.03 72.3534 28.53C72.3534 28.15 72.4734 27.82 72.7134 27.54C72.9334 27.24 73.2634 27.08 73.7034 27.06L74.6034 27C75.4834 26.94 76.1434 26.67 76.5834 26.19C77.0434 25.69 77.2734 24.98 77.2734 24.06V10.56C77.2734 9.92 77.4334 9.44 77.7534 9.12C78.0934 8.78 78.5734 8.61 79.1934 8.61C79.8134 8.61 80.2834 8.78 80.6034 9.12C80.9434 9.44 81.1134 9.92 81.1134 10.56V24.03C81.1134 25.29 80.8834 26.36 80.4234 27.24C79.9834 28.12 79.3234 28.81 78.4434 29.31C77.5634 29.79 76.4734 30.07 75.1734 30.15L74.1534 30.21ZM92.0189 30.3C90.4989 30.3 89.1789 29.99 88.0589 29.37C86.9389 28.75 86.0689 27.87 85.4489 26.73C84.8289 25.57 84.5189 24.21 84.5189 22.65C84.5189 21.47 84.6889 20.42 85.0289 19.5C85.3889 18.56 85.8989 17.76 86.5589 17.1C87.2189 16.42 88.0089 15.91 88.9289 15.57C89.8489 15.21 90.8789 15.03 92.0189 15.03C93.5389 15.03 94.8589 15.34 95.9789 15.96C97.0989 16.58 97.9689 17.46 98.5889 18.6C99.2089 19.74 99.5189 21.09 99.5189 22.65C99.5189 23.83 99.3389 24.89 98.9789 25.83C98.6389 26.77 98.1389 27.58 97.4789 28.26C96.8189 28.92 96.0289 29.43 95.1089 29.79C94.1889 30.13 93.1589 30.3 92.0189 30.3ZM92.0189 27.45C92.7589 27.45 93.4089 27.27 93.9689 26.91C94.5289 26.55 94.9589 26.02 95.2589 25.32C95.5789 24.6 95.7389 23.71 95.7389 22.65C95.7389 21.05 95.3989 19.86 94.7189 19.08C94.0389 18.28 93.1389 17.88 92.0189 17.88C91.2789 17.88 90.6289 18.06 90.0689 18.42C89.5089 18.76 89.0689 19.29 88.7489 20.01C88.4489 20.71 88.2989 21.59 88.2989 22.65C88.2989 24.23 88.6389 25.43 89.3189 26.25C89.9989 27.05 90.8989 27.45 92.0189 27.45ZM104.474 30.24C103.874 30.24 103.414 30.08 103.094 29.76C102.774 29.42 102.614 28.94 102.614 28.32V10.5C102.614 9.88 102.774 9.41 103.094 9.09C103.414 8.77 103.874 8.61 104.474 8.61C105.074 8.61 105.534 8.77 105.854 9.09C106.194 9.41 106.364 9.88 106.364 10.5V18.27H105.944C106.384 17.21 107.064 16.41 107.984 15.87C108.924 15.31 109.984 15.03 111.164 15.03C112.344 15.03 113.314 15.25 114.074 15.69C114.834 16.13 115.404 16.8 115.784 17.7C116.164 18.58 116.354 19.7 116.354 21.06V28.32C116.354 28.94 116.194 29.42 115.874 29.76C115.554 30.08 115.094 30.24 114.494 30.24C113.894 30.24 113.424 30.08 113.084 29.76C112.764 29.42 112.604 28.94 112.604 28.32V21.24C112.604 20.1 112.384 19.27 111.944 18.75C111.524 18.23 110.864 17.97 109.964 17.97C108.864 17.97 107.984 18.32 107.324 19.02C106.684 19.7 106.364 20.61 106.364 21.75V28.32C106.364 29.6 105.734 30.24 104.474 30.24ZM122.023 30.24C121.423 30.24 120.963 30.08 120.643 29.76C120.323 29.42 120.163 28.94 120.163 28.32V16.98C120.163 16.36 120.323 15.89 120.643 15.57C120.963 15.25 121.413 15.09 121.993 15.09C122.573 15.09 123.023 15.25 123.343 15.57C123.663 15.89 123.823 16.36 123.823 16.98V19.02L123.493 18.27C123.933 17.21 124.613 16.41 125.533 15.87C126.473 15.31 127.533 15.03 128.713 15.03C129.893 15.03 130.863 15.25 131.623 15.69C132.383 16.13 132.953 16.8 133.333 17.7C133.713 18.58 133.903 19.7 133.903 21.06V28.32C133.903 28.94 133.743 29.42 133.423 29.76C133.103 30.08 132.643 30.24 132.043 30.24C131.443 30.24 130.973 30.08 130.633 29.76C130.313 29.42 130.153 28.94 130.153 28.32V21.24C130.153 20.1 129.933 19.27 129.493 18.75C129.073 18.23 128.413 17.97 127.513 17.97C126.413 17.97 125.533 18.32 124.873 19.02C124.233 19.7 123.913 20.61 123.913 21.75V28.32C123.913 29.6 123.283 30.24 122.023 30.24Z" fill="white"/>
<path fill-rule="evenodd" clip-rule="evenodd" d="M86.4269 37.2638C80.0757 40.6552 70.87 42.4646 62.944 42.4646C51.8305 42.4646 41.8255 39.4868 34.2563 34.5343C33.6617 34.1447 34.1945 33.614 34.9081 33.9173C43.0767 37.3604 53.1769 39.4317 63.6101 39.4317C70.6464 39.4317 78.3868 38.3771 85.504 36.1886C86.5791 35.8577 87.4783 36.6986 86.4269 37.2638Z" fill="#FF9900"/>
<path fill-rule="evenodd" clip-rule="evenodd" d="M89.0674 35.0754C88.2586 34.324 83.7009 34.7203 81.6551 34.8961C81.0319 34.9513 80.9368 34.5583 81.4982 34.2758C85.1281 32.425 91.0845 32.9592 91.7791 33.5796C92.4736 34.2034 91.5983 38.5287 88.1872 40.5931C87.6639 40.9102 87.1643 40.7413 87.3974 40.3208C88.1634 38.9354 89.8809 35.8301 89.0674 35.0754Z" fill="#FF9900"/>
</svg>
